<svg xmlns="http://www.w3.org/2000/svg" width="34.784" height="30.169" viewBox="0 0 34.784 30.169">
  <g id="noun_Chat_Icon_3363131" data-name="noun_Chat Icon_3363131" transform="translate(-15.886 0.1)">
    <g id="Group_55678" data-name="Group 55678" transform="translate(16)">
      <path id="Path_7962" data-name="Path 7962" d="M6.544,0H20.171A4.406,4.406,0,0,1,24.61,4.439v7.433h3.716a4.472,4.472,0,0,1,4.439,4.439v6.5l1.858,5.162a1.423,1.423,0,0,1-1.858,1.858h0c-1.136-.413-3.407-1.445-4.439-1.445H14.7a4.406,4.406,0,0,1-4.439-4.439V16.62H6.544a20.182,20.182,0,0,0-4.439,1.445h0A1.462,1.462,0,0,1,.247,16.207l1.858-5.162V4.439A4.472,4.472,0,0,1,6.544,0ZM14.7,13.626a2.665,2.665,0,0,0-2.684,2.684v7.639A2.6,2.6,0,0,0,14.7,26.633H28.326c1.239,0,3.2.929,4.439,1.342L31.01,23.33V16.31a2.665,2.665,0,0,0-2.684-2.684Zm-4.232,1.239A4.431,4.431,0,0,1,14.7,11.872h8.155V4.439a2.665,2.665,0,0,0-2.684-2.684H6.544A2.733,2.733,0,0,0,3.86,4.439v7.02L2.105,16.207c1.239-.516,3.2-1.445,4.439-1.342Z" transform="translate(-0.16 0)" fill="#fff" stroke="#2ca3ff" stroke-width="0.2"/>
      <circle id="Ellipse_245" data-name="Ellipse 245" cx="1" cy="1" r="1" transform="translate(16.095 19.052)" fill="#fff" stroke="#2ca3ff" stroke-width="0.2"/>
      <circle id="Ellipse_246" data-name="Ellipse 246" cx="1" cy="1" r="1" transform="translate(20.095 19.052)" fill="#fff" stroke="#2ca3ff" stroke-width="0.2"/>
      <ellipse id="Ellipse_247" data-name="Ellipse 247" cx="2" cy="1" rx="2" ry="1" transform="translate(23.095 19.052)" fill="#fff" stroke="#2ca3ff" stroke-width="0.2"/>
    </g>
  </g>
</svg>
