<svg xmlns="http://www.w3.org/2000/svg" width="538.741" height="267.26" viewBox="0 0 538.741 267.26">
  <g id="undraw_moonlight_5ksn" transform="translate(-0.003)">
    <path id="Path_8127" data-name="Path 8127" d="M362.4,198.5c-148.068,0-268.229,119.462-269.372,267.26H631.769C630.626,317.962,510.465,198.5,362.4,198.5Z" transform="translate(-93.025 -198.5)" fill="#2f2e41"/>
    <circle id="Ellipse_277" data-name="Ellipse 277" cx="2.657" cy="2.657" r="2.657" transform="translate(252.801 25.262)" fill="#f2f2f2"/>
    <circle id="Ellipse_278" data-name="Ellipse 278" cx="1.063" cy="1.063" r="1.063" transform="translate(170.976 114.525)" fill="#f2f2f2"/>
    <circle id="Ellipse_279" data-name="Ellipse 279" cx="1.063" cy="1.063" r="1.063" transform="translate(327.719 164.471)" fill="#f2f2f2"/>
    <circle id="Ellipse_280" data-name="Ellipse 280" cx="1.063" cy="1.063" r="1.063" transform="translate(50.895 151.187)" fill="#f2f2f2"/>
    <circle id="Ellipse_281" data-name="Ellipse 281" cx="1.063" cy="1.063" r="1.063" transform="translate(465.334 113.463)" fill="#f2f2f2"/>
    <circle id="Ellipse_282" data-name="Ellipse 282" cx="1.063" cy="1.063" r="1.063" transform="translate(124.219 124.621)" fill="#f2f2f2"/>
    <circle id="Ellipse_283" data-name="Ellipse 283" cx="1.063" cy="1.063" r="1.063" transform="translate(298.496 103.367)" fill="#f2f2f2"/>
    <circle id="Ellipse_284" data-name="Ellipse 284" cx="1.063" cy="1.063" r="1.063" transform="translate(333.564 26.856)" fill="#f2f2f2"/>
    <rect id="Rectangle_6161" data-name="Rectangle 6161" width="1.063" height="0.531" transform="translate(112.53 153.313)" fill="#f2f2f2"/>
    <rect id="Rectangle_6162" data-name="Rectangle 6162" width="1.063" height="0.531" transform="translate(143.878 72.019)" fill="#f2f2f2"/>
    <rect id="Rectangle_6163" data-name="Rectangle 6163" width="1.063" height="0.531" transform="translate(220.39 132.591)" fill="#f2f2f2"/>
    <rect id="Rectangle_6164" data-name="Rectangle 6164" width="1.063" height="0.531" transform="translate(423.359 155.969)" fill="#f2f2f2"/>
    <rect id="Rectangle_6165" data-name="Rectangle 6165" width="1.063" height="0.531" transform="translate(360.13 74.675)" fill="#f2f2f2"/>
    <rect id="Rectangle_6166" data-name="Rectangle 6166" width="1.87" height="73.857" transform="translate(119.597 193.235)" fill="#3f3d56"/>
    <rect id="Rectangle_6166-2" data-name="Rectangle 6166" width="1.87" height="73.857" transform="translate(450.872 193.403)" fill="#3f3d56"/>
    <path id="Path_8128" data-name="Path 8128" d="M321.886,496.722c.119,25.826-18.051,46.846-18.051,46.846s-18.363-20.852-18.482-46.678S303.4,450.044,303.4,450.044,321.767,470.9,321.886,496.722Z" transform="translate(-183.163 -316.391)" fill="#0f3f64"/>
    <path id="Path_8128-2" data-name="Path 8128" d="M321.886,478.922c.119,15.978-18.051,28.982-18.051,28.982s-18.363-12.9-18.482-28.878S303.4,450.044,303.4,450.044,321.767,462.947,321.886,478.922Z" transform="translate(148.112 -280.559)" fill="#0f3f64"/>
    <rect id="Rectangle_6167" data-name="Rectangle 6167" width="2.424" height="95.752" transform="translate(95.964 171.34)" fill="#3f3d56"/>
    <path id="Path_8129" data-name="Path 8129" d="M278.525,448.56c.154,33.482-23.4,60.734-23.4,60.734s-23.807-27.033-23.961-60.516,23.4-60.734,23.4-60.734S278.37,415.077,278.525,448.56Z" transform="translate(-157.765 -287.333)" fill="#0f3f64"/>
    <rect id="Rectangle_6169" data-name="Rectangle 6169" width="1.87" height="73.857" transform="translate(74.965 193.235)" fill="#3f3d56"/>
    <path id="Path_8131" data-name="Path 8131" d="M237.886,496.722c.119,25.826-18.051,46.846-18.051,46.846s-18.363-20.852-18.482-46.678S219.4,450.044,219.4,450.044,237.767,470.9,237.886,496.722Z" transform="translate(-143.795 -316.391)" fill="#0f3f64"/>
    <rect id="Rectangle_6170" data-name="Rectangle 6170" width="1.87" height="73.857" transform="translate(239.678 193.235)" fill="#3f3d56"/>
    <path id="Path_8132" data-name="Path 8132" d="M547.886,496.722c.119,25.826-18.051,46.846-18.051,46.846s-18.363-20.852-18.482-46.678S529.4,450.044,529.4,450.044,547.767,470.9,547.886,496.722Z" transform="translate(-289.082 -316.391)" fill="#0f3f64"/>
    <rect id="Rectangle_6171" data-name="Rectangle 6171" width="2.424" height="95.752" transform="translate(216.045 171.34)" fill="#3f3d56"/>
    <path id="Path_8133" data-name="Path 8133" d="M504.525,448.56c.154,33.482-23.4,60.734-23.4,60.734s-23.807-27.033-23.961-60.516,23.4-60.734,23.4-60.734S504.37,415.077,504.525,448.56Z" transform="translate(-263.684 -287.333)" fill="#0f3f64"/>
    <rect id="Rectangle_6172" data-name="Rectangle 6172" width="1.87" height="73.857" transform="translate(195.046 193.235)" fill="#3f3d56"/>
    <path id="Path_8134" data-name="Path 8134" d="M463.886,496.722c.119,25.826-18.051,46.846-18.051,46.846s-18.363-20.852-18.482-46.678S445.4,450.044,445.4,450.044,463.767,470.9,463.886,496.722Z" transform="translate(-249.714 -316.391)" fill="#0f3f64"/>
    <path id="Path_8136" data-name="Path 8136" d="M393.384,681.8a12.719,12.719,0,0,0,4.737,6.408,10.951,10.951,0,0,0-3.877-14.33,12.719,12.719,0,0,0-.86,7.922Z" transform="translate(-233.642 -421.292)" fill="#0f3f64"/>
    <path id="Path_8137" data-name="Path 8137" d="M390.154,684.449a12.719,12.719,0,0,1,3.3,7.255,10.951,10.951,0,0,1-10.638-10.355,12.719,12.719,0,0,1,7.338,3.1Z" transform="translate(-228.84 -424.796)" fill="#0f3f64"/>
    <path id="Path_8161" data-name="Path 8161" d="M439.95,175.347l-.1.026-4.642-4.22-.224-.065.242-.092L385.85,125.6h0L338.17,81.76l-24.3,12.887-1.987.44L341,139.03,451.193,305.337H581.326Z" transform="translate(-146.172 -38.319)" fill="#f2f2f2" opacity="0.1"/>
    <path id="Path_8140" data-name="Path 8140" d="M169.384,681.8a12.719,12.719,0,0,0,4.737,6.408,10.951,10.951,0,0,0-3.877-14.33A12.719,12.719,0,0,0,169.384,681.8Z" transform="translate(-128.661 -421.292)" fill="#0f3f64"/>
    <path id="Path_8141" data-name="Path 8141" d="M166.154,684.449a12.719,12.719,0,0,1,3.3,7.255,10.951,10.951,0,0,1-10.638-10.355A12.719,12.719,0,0,1,166.154,684.449Z" transform="translate(-123.858 -424.796)" fill="#0f3f64"/>
    <path id="Path_8142" data-name="Path 8142" d="M480.358,404.6,531.637,482a60.369,60.369,0,0,0,1.723-14.333c-.058-12.594-4.454-24-8.944-32.39l-2.372.59,2.231-.851a82.4,82.4,0,0,0-9.4-14.026s-1.308,1.514-3.22,4.227a112.218,112.218,0,0,0-20.223-37.169A104.944,104.944,0,0,0,480.358,404.6Z" transform="translate(-274.556 -287.333)" fill="#2ca3ff"/>
    <path id="Path_8146" data-name="Path 8146" d="M978.164,645.251c.088-.015.175-.039.262-.062a1.916,1.916,0,0,0-.832.08,2.32,2.32,0,0,0,.57-.018Z" transform="translate(-507.595 -407.842)" fill="#ff6584"/>
    <path id="Path_8149" data-name="Path 8149" d="M989.694,693.037c.026.024.052.049.079.072-.02-.029-.041-.056-.059-.086Z" transform="translate(-513.265 -430.268)" fill="#ff6584"/>
    <g id="Group_6" data-name="Group 6" transform="translate(-130)">
      <path id="Path_8152" data-name="Path 8152" d="M1037.038,654.312a4.149,4.149,0,0,0,1.142-2.4" transform="translate(-535.454 -411)" fill="#ff6584"/>
      <path id="Path_8153" data-name="Path 8153" d="M1013.222,635.522a4.147,4.147,0,0,0-1.534-2.169" transform="translate(-523.573 -402.302)" fill="#ff6584"/>
      <path id="Path_8154" data-name="Path 8154" d="M991.222,594.522a4.148,4.148,0,0,0-1.533-2.169" transform="translate(-513.263 -383.086)" fill="#ff6584"/>
      <path id="Path_8155" data-name="Path 8155" d="M1017.222,649.522a4.149,4.149,0,0,0-1.533-2.169" transform="translate(-525.448 -408.863)" fill="#ff6584"/>
      <path id="Path_8156" data-name="Path 8156" d="M1014.222,600.522a4.148,4.148,0,0,0-1.534-2.169" transform="translate(-524.042 -385.898)" fill="#ff6584"/>
      <path id="Path_8157" data-name="Path 8157" d="M1008.222,618.522a4.148,4.148,0,0,0-1.534-2.169" transform="translate(-521.23 -394.334)" fill="#ff6584"/>
      <path id="Path_8158" data-name="Path 8158" d="M1035.038,685.312a4.148,4.148,0,0,0,1.141-2.4" transform="translate(-534.517 -425.529)" fill="#ff6584"/>
      <path id="Path_8159" data-name="Path 8159" d="M1039.038,668.312a4.149,4.149,0,0,0,1.142-2.4" transform="translate(-536.391 -417.562)" fill="#ff6584"/>
      <g id="Group_5" data-name="Group 5">
        <g id="Group_4" data-name="Group 4">
          <path id="Path_8143" data-name="Path 8143" d="M1023.206,692.592a1.529,1.529,0,1,0,0-3.058h-12.571a3.419,3.419,0,0,1-1.529,4.587,1.529,1.529,0,0,0,1.529,1.529h12.571a1.529,1.529,0,1,0,0-3.058Z" transform="translate(-522.363 -428.632)" fill="#f2f2f2" opacity="0.1"/>
          <g id="Group_3" data-name="Group 3">
            <path id="Path_8150" data-name="Path 8150" d="M1024.474,670.353c0,5.629-2.51,4.077-5.606,4.077s-5.606,1.552-5.606-4.077,5.606-16.309,5.606-16.309S1024.474,664.723,1024.474,670.353Z" transform="translate(-524.311 -411.999)" fill="#ff6584"/>
            <path id="Path_8151" data-name="Path 8151" d="M1024.114,682.253c0,2.559-1.141,1.853-2.548,1.853s-2.548.706-2.548-1.853,2.548-7.413,2.548-7.413S1024.114,679.694,1024.114,682.253Z" transform="translate(-527.008 -421.745)" opacity="0.1"/>
          </g>
        </g>
        <g id="Group_2" data-name="Group 2">
          <rect id="Rectangle_6173" data-name="Rectangle 6173" width="13.442" height="0.532" transform="matrix(0.949, -0.316, 0.316, 0.949, 475.344, 253.48)" fill="#ff6584"/>
          <g id="Group_1" data-name="Group 1">
            <path id="Path_8144" data-name="Path 8144" d="M959.878,685.5c.215,8.338-4.829,6.213-10.943,6.213s-11.158,1.063-11.2-6.213c-.02-3.583,4.993-4.362,11.108-4.362S959.785,681.922,959.878,685.5Z" transform="translate(-488.914 -424.699)" fill="#57519f"/>
            <path id="Path_8145" data-name="Path 8145" d="M982.5,671.894a.937.937,0,0,0-.317-.1,15.825,15.825,0,0,1-1.647-.352,3.469,3.469,0,0,1-1.458-.811,3.524,3.524,0,0,0-.513-.492.617.617,0,0,0-.669-.048.438.438,0,0,0-.059.056l-.228-.15q-.607-.4-1.22-.79l-.017-.011a.56.56,0,0,0,0-.194.937.937,0,0,0-.407-.5c.527,0,1.057-.053,1.581-.109a1.9,1.9,0,0,0,1.342-.525.364.364,0,0,0,.094-.217c0-.165-.17-.273-.322-.336a3.244,3.244,0,0,0-.63-.186,3.456,3.456,0,0,1-.447-.093,2.258,2.258,0,0,1-.376-.178l-.779-.429a1.191,1.191,0,0,1-.3-.209c-.132-.14-.191-.338-.326-.475s-.626-.294-.7-.034c-.028.1.08.216.093.331a5.249,5.249,0,0,0-.539-.3c.01-.023.023-.044.032-.068a6.944,6.944,0,0,1-2-2.586c.077,0,.154.007.232.006a.592.592,0,0,0,.38-.094.409.409,0,0,0,.133-.332,1.121,1.121,0,0,0-.089-.358,2.74,2.74,0,0,0-.517-.928,3.1,3.1,0,0,0-.758-.538l-.045-.025c-.019-.057-.036-.115-.059-.171a9.107,9.107,0,0,0-.568-1.011,6.619,6.619,0,0,1-.65-1.73,2.232,2.232,0,0,0-.41-1.018,1.955,1.955,0,0,0-1.7-.368c-.342.039-.683.09-1.023.143a.037.037,0,0,0-.007-.026.7.7,0,0,1-.078-.258,1.087,1.087,0,0,1,.048-.217.533.533,0,0,0-.149-.49l-.042-.044q.056-.133.1-.267a.321.321,0,0,0,.075-.242,2.568,2.568,0,0,0,.1-.669,7.323,7.323,0,0,1-.054-1.51.844.844,0,0,0-.133-.349c-.012-.017-.033-.024-.047-.039a2.132,2.132,0,0,1,.357-.37,5.355,5.355,0,0,1,.837-.53c.071-.039.169-.066.236-.111a2.376,2.376,0,0,0,2.548-3.222.836.836,0,0,0,.521-.384,1.565,1.565,0,0,0,.2-.662.693.693,0,0,0-.1-.523,1.171,1.171,0,0,0-.3-.213,1.166,1.166,0,0,1-.379-.384c-.067-.111-.115-.232-.176-.347a1.286,1.286,0,0,0-1.111-.736,4.806,4.806,0,0,0-.661.132c-.744.13-1.552-.263-2.242.044a2.081,2.081,0,0,0-.469.313q-.292.24-.56.506a1.16,1.16,0,0,0-.341.5c-.094.352.129.745-.013,1.081a1.628,1.628,0,0,1-.173.272c-.157.23.013,1.126,0,1.4a.52.52,0,0,0,.1.385.322.322,0,0,0,.07.053,31.137,31.137,0,0,0-3.39,1.441,7.264,7.264,0,0,0-3.145,2.938c-.187.364-.329.75-.5,1.122-.225.5-.5.971-.77,1.445-.332.577-.665,1.155-1.049,1.7a9.754,9.754,0,0,0-.607.9.877.877,0,0,0,0,.137.244.244,0,0,1-.012.128.2.2,0,0,1-.145.083l-.009.023a8.279,8.279,0,0,0-.215.851c-.113.456-.294.9-.364,1.362a.362.362,0,0,0,.354.564c.4.177.782.384,1.164.593-.006.028-.014.055-.018.084a1.568,1.568,0,0,0,.831,1.452,4.276,4.276,0,0,0,1.7.461c.229.027.46.04.69.064a4.685,4.685,0,0,0,1.062.43.989.989,0,0,0,.249.039.756.756,0,0,0,.568-.32,39.242,39.242,0,0,0,5.927-.121,2.168,2.168,0,0,1,1.6.248c.427.347.513.963.831,1.412a5.216,5.216,0,0,0,.773.754,11.494,11.494,0,0,1,1.484,1.95,4.378,4.378,0,0,0,1.788,1.65,1.263,1.263,0,0,1,.555-.483c.059-.035.116-.076.174-.114a2.177,2.177,0,0,0,.271.354c.076.082.152.169.223.259h-.006c-.1.016-.138.146-.15.25l-.137,1.2a.444.444,0,0,0,.016.236.418.418,0,0,0,.215.178,3.235,3.235,0,0,0,1.179.311c.206.014.413.008.618.026a7.466,7.466,0,0,1,1,.2,9.392,9.392,0,0,0,2.724.213,1.731,1.731,0,0,0,.552-.1,1.642,1.642,0,0,0,.545-.422,1.544,1.544,0,0,0,.41-.657.638.638,0,0,0-.257-.7Z" transform="translate(-497.234 -407.793)" fill="#57519f"/>
            <path id="Path_8147" data-name="Path 8147" d="M978.663,645.807c.06.115.109.236.176.347a1.165,1.165,0,0,0,.379.384,1.172,1.172,0,0,1,.3.213.693.693,0,0,1,.1.523,1.564,1.564,0,0,1-.2.662.836.836,0,0,1-.521.384,2.343,2.343,0,0,1-2.548,3.222c-.067.044-.166.072-.236.111a5.357,5.357,0,0,0-.837.53,2.138,2.138,0,0,0-.356.37c.014.015.035.023.047.039a.845.845,0,0,1,.133.349,7.336,7.336,0,0,0,.054,1.51,2.559,2.559,0,0,1-.1.669.322.322,0,0,1-.075.242q-.047.135-.1.267l.042.044a.533.533,0,0,1,.149.49,1.073,1.073,0,0,0-.048.217.7.7,0,0,0,.078.258.037.037,0,0,0,.007.026c.34-.053.681-.1,1.023-.143a5.066,5.066,0,0,1,.508-.033.353.353,0,0,1-.022-.108,1.069,1.069,0,0,1,.048-.217.533.533,0,0,0-.149-.49l-.042-.044q.056-.132.1-.267a.321.321,0,0,0,.075-.242,2.567,2.567,0,0,0,.1-.669,7.322,7.322,0,0,1-.054-1.51.846.846,0,0,0-.133-.349c-.012-.017-.033-.024-.047-.039a2.139,2.139,0,0,1,.357-.37,5.363,5.363,0,0,1,.836-.53c.071-.039.169-.066.237-.111a2.376,2.376,0,0,0,2.548-3.222.836.836,0,0,0,.521-.384,1.567,1.567,0,0,0,.2-.662.693.693,0,0,0-.1-.523,1.169,1.169,0,0,0-.3-.213,1.166,1.166,0,0,1-.379-.384c-.067-.111-.115-.232-.176-.347a1.286,1.286,0,0,0-1.111-.736,4.8,4.8,0,0,0-.661.132,2.008,2.008,0,0,1-.368.024,1.483,1.483,0,0,1,.545.58Z" transform="translate(-506.321 -407.793)" fill="#ff6584"/>
            <path id="Path_8148" data-name="Path 8148" d="M993.745,681.963a.934.934,0,0,0-.317-.1,15.823,15.823,0,0,1-1.647-.352,3.469,3.469,0,0,1-1.458-.811,3.514,3.514,0,0,0-.513-.492.618.618,0,0,0-.669-.048.442.442,0,0,0-.059.056l-.228-.15q-.607-.4-1.22-.79l-.017-.011a.56.56,0,0,0,0-.194.939.939,0,0,0-.407-.5c.527-.005,1.057-.053,1.581-.109a1.9,1.9,0,0,0,1.342-.525.365.365,0,0,0,.094-.217c0-.165-.17-.273-.323-.336a3.238,3.238,0,0,0-.63-.186,3.457,3.457,0,0,1-.447-.093,2.253,2.253,0,0,1-.376-.178l-.779-.429a1.191,1.191,0,0,1-.3-.209c-.132-.14-.191-.338-.326-.475s-.627-.294-.7-.034c-.028.1.08.216.093.331a5.274,5.274,0,0,0-.539-.3c.01-.023.023-.044.032-.068a6.945,6.945,0,0,1-2-2.586c.077,0,.154.007.232.006a.591.591,0,0,0,.374-.091.409.409,0,0,0,.133-.332,1.125,1.125,0,0,0-.09-.358,2.737,2.737,0,0,0-.517-.928,3.1,3.1,0,0,0-.758-.538l-.045-.025c-.019-.057-.036-.115-.059-.171a9.122,9.122,0,0,0-.568-1.011,6.615,6.615,0,0,1-.65-1.73,2.231,2.231,0,0,0-.41-1.018,1.956,1.956,0,0,0-1.7-.368c-.134.015-.267.038-.4.056a1.133,1.133,0,0,1,.507.312,2.23,2.23,0,0,1,.41,1.018,6.622,6.622,0,0,0,.65,1.73,9.132,9.132,0,0,1,.568,1.011c.023.056.04.114.059.171l.045.025a3.1,3.1,0,0,1,.758.538,2.736,2.736,0,0,1,.517.928,1.124,1.124,0,0,1,.09.358.409.409,0,0,1-.133.332.592.592,0,0,1-.374.091c-.077,0-.154,0-.232-.006a6.947,6.947,0,0,0,2,2.586c-.009.024-.022.045-.032.068a5.3,5.3,0,0,1,.539.3c-.013-.115-.121-.228-.093-.331.072-.26.574-.093.7.034s.193.335.326.475a1.186,1.186,0,0,0,.3.209l.779.429a2.257,2.257,0,0,0,.376.178,3.469,3.469,0,0,0,.447.093,3.246,3.246,0,0,1,.631.186c.153.063.323.171.322.336a.365.365,0,0,1-.094.217,1.9,1.9,0,0,1-1.342.525c-.524.055-1.054.1-1.581.109a.939.939,0,0,1,.407.5.561.561,0,0,1,0,.194l.017.011q.613.39,1.22.79l.228.15a.45.45,0,0,1,.059-.056.617.617,0,0,1,.669.048,3.517,3.517,0,0,1,.513.492,3.47,3.47,0,0,0,1.458.811,15.892,15.892,0,0,0,1.647.352.937.937,0,0,1,.317.1.638.638,0,0,1,.235.693,1.543,1.543,0,0,1-.41.657,1.641,1.641,0,0,1-.545.422,1.422,1.422,0,0,1-.4.089,9.36,9.36,0,0,0,1.446.016,1.729,1.729,0,0,0,.553-.1,1.641,1.641,0,0,0,.545-.422,1.544,1.544,0,0,0,.41-.657.638.638,0,0,0-.241-.7Z" transform="translate(-508.477 -417.863)" fill="#ff6584"/>
            <path id="Path_8160" data-name="Path 8160" d="M1007.366,667.542c.479,1.871-.325,1.424-1.058,1.575s-.589.826-1.6-1.026c-.7-1.281.325-1.424,1.058-1.575S1007.039,666.265,1007.366,667.542Z" transform="translate(-520.194 -417.803)" fill="#ff6584"/>
          </g>
        </g>
      </g>
    </g>
    <circle id="Ellipse_285" data-name="Ellipse 285" cx="14.346" cy="14.346" r="14.346" transform="translate(163.537 34.826)" fill="#f2f2f2"/>
  </g>
</svg>
